<svg xmlns="http://www.w3.org/2000/svg" xml:space="preserve" width="215.831" height="159.6" style="shape-rendering:geometricPrecision;text-rendering:geometricPrecision;image-rendering:optimizeQuality;fill-rule:evenodd;clip-rule:evenodd" viewBox="0 0 186.44 137.86"><defs><style>.fil0{fill:none}</style></defs><g id="Layer_x0020_1"><g id="_1949221271312"><path class="fil0" d="m180.33 5.56-31.03 9.11c1.21 4.31-2.31 5.36-6.64 8.03-22.12 14.29-44.23 28.58-66.35 42.87-4.56 2.45-7.49-5.77-4.26-10.62 1.43-2.39 4.8-4.61 6.82-6.06 2.73-2.03-.66-6.79-5.2-6.7-11.35 1.3-18.63 10.69-25.57 20.48-6.34 7.96-16.5 7.83-25.24 9.29C6.93 74.62-2.68 84.47 1.59 98.71c4.16 12.31 10.59 23.96 19.62 32.06 15.37 13.5 29.25 4.12 38.27-10.8 4.33-8.86 8.38-13.56 19.38-15.14 19.71-5.4 18.79-20.38 5.48-14.07-5.63 2.53-12.7-7.34-6.51-11.56l74.31-51.38c3.86-2.84 5.8-3.39 8.46-2.3 2.56 1.05 2.57 1.95 4.82-.36l9.94-10.19c4.75 2.69 7.43 2.12 9.87-1.71 2.1-3.55-1.45-8.61-4.9-7.69zM151.17 10.93l2.65-.74c.19-.05.31-.26.25-.45l-.3-1.07c-.14-.5-.67-.8-1.17-.66l-1.53.43c-.5.14-.8.67-.66 1.17l.3 1.07c.05.19.26.31.45.25zM153.51 13.43l-.97-2.88M156.56 9.35l2.65-.74c.19-.05.31-.26.25-.45l-.3-1.07c-.14-.5-.67-.8-1.17-.66l-1.53.43c-.5.14-.8.67-.66 1.17l.3 1.07c.05.19.26.31.45.25zM158.89 11.85l-.97-2.88M161.41 7.93l2.65-.74c.19-.05.31-.26.25-.45l-.3-1.07c-.14-.5-.67-.8-1.17-.66l-1.53.43c-.5.14-.8.67-.66 1.17l.3 1.07c.05.19.26.31.45.25zM163.75 10.42l-.97-2.88M166.5 6.43l2.65-.74c.19-.05.31-.26.25-.45l-.3-1.07c-.14-.5-.67-.8-1.17-.66l-1.53.43c-.5.14-.8.67-.66 1.17l.3 1.07c.05.19.26.31.45.25zM168.84 8.93l-.97-2.88M171.5 4.96l2.65-.74c.19-.05.31-.26.25-.45l-.3-1.07c-.14-.5-.67-.8-1.17-.66l-1.53.43c-.5.14-.8.67-.66 1.17l.3 1.07c.05.19.26.31.45.25zM173.84 7.46l-.97-2.88M176.38 3.53l2.65-.74c.19-.05.31-.26.25-.45l-.3-1.07c-.14-.5-.67-.8-1.17-.66l-1.53.43c-.5.14-.8.67-.66 1.17l.3 1.07c.05.19.26.31.45.25zM178.72 6.03l-.98-2.88" style="stroke:#1c73e8;stroke-width:1.15;stroke-linecap:round;stroke-linejoin:round;stroke-miterlimit:2.61313"/></g></g></svg>