<?xml version="1.0" encoding="UTF-8" standalone="no"?>
<!-- Creator: CorelDRAW 2020 (64-Bit) -->

<svg
   xml:space="preserve"
   width="2.11781in"
   height="1.76113in"
   version="1.1"
   style="shape-rendering:geometricPrecision; text-rendering:geometricPrecision; image-rendering:optimizeQuality; fill-rule:evenodd; clip-rule:evenodd"
   viewBox="0 0 215.08 178.86"
   id="svg27"
   sodipodi:docname="acoustic-guitar.svg"
   inkscape:version="1.2 (dc2aeda, 2022-05-15)"
   inkscape:export-filename="acoustic-guitar.png"
   inkscape:export-xdpi="96"
   inkscape:export-ydpi="96"
   xmlns:inkscape="http://www.inkscape.org/namespaces/inkscape"
   xmlns:sodipodi="http://sodipodi.sourceforge.net/DTD/sodipodi-0.dtd"
   xmlns="http://www.w3.org/2000/svg"
   xmlns:svg="http://www.w3.org/2000/svg"><sodipodi:namedview
   id="namedview29"
   pagecolor="#ffffff"
   bordercolor="#000000"
   borderopacity="0.25"
   inkscape:showpageshadow="2"
   inkscape:pageopacity="0.0"
   inkscape:pagecheckerboard="0"
   inkscape:deskcolor="#d1d1d1"
   inkscape:document-units="in"
   showgrid="false"
   inkscape:zoom="6.0744617"
   inkscape:cx="64.120908"
   inkscape:cy="86.3451"
   inkscape:window-width="1390"
   inkscape:window-height="1205"
   inkscape:window-x="0"
   inkscape:window-y="25"
   inkscape:window-maximized="0"
   inkscape:current-layer="Layer_x0020_1" />
 <defs
   id="defs4">
  <style
   type="text/css"
   id="style2">
   <![CDATA[
    .str8 {stroke:#1C73E8;stroke-width:1.41;stroke-linecap:round;stroke-linejoin:round;stroke-miterlimit:2.61313}
    .str7 {stroke:#1C73E8;stroke-width:1.41;stroke-linecap:round;stroke-linejoin:round;stroke-miterlimit:2.61313}
    .str6 {stroke:#1C73E8;stroke-width:1.41;stroke-linecap:round;stroke-linejoin:round;stroke-miterlimit:2.61313}
    .str0 {stroke:#1C73E8;stroke-width:1.41;stroke-linecap:round;stroke-linejoin:round;stroke-miterlimit:2.61313}
    .str1 {stroke:#1C73E8;stroke-width:1.41;stroke-linecap:round;stroke-linejoin:round;stroke-miterlimit:2.61313}
    .str2 {stroke:#1C73E8;stroke-width:1.41;stroke-linecap:round;stroke-linejoin:round;stroke-miterlimit:2.61313}
    .str4 {stroke:#1C73E8;stroke-width:1.41;stroke-linecap:round;stroke-linejoin:round;stroke-miterlimit:2.61313}
    .str5 {stroke:#1C73E8;stroke-width:1.41;stroke-linecap:round;stroke-linejoin:round;stroke-miterlimit:2.61313}
    .str3 {stroke:#1C73E8;stroke-width:1.41;stroke-linecap:round;stroke-linejoin:round;stroke-miterlimit:2.61313}
    .fil0 {fill:none}
   ]]>
  </style>
 
   
   
   
   
   
   
   
   
   
  </defs>
 <g
   id="Layer_x0020_1"
   inkscape:label="Layer 1">
  <metadata
   id="CorelCorpID_0Corel-Layer" />
  <path
   class="fil0 str0"
   d="M 107.55,77.9 C 99.65,66.96 85.89,51.95 72.6,67.53 58.04,84.6 58.36,79.65 41.24,83.27 c -15.73,3.32 -27,8.92 -33.61,16.32 -7.92,8.88 -9.13,20.36 -3.24,33.62 4.54,10.22 18.28,28.62 26.79,35.84 9.76,8.27 19.78,10.91 29.44,7.94 10.36,-3.18 20.29,-12.81 28.99,-28.83 8.35,-15.38 3.52,-16.48 24.04,-25.56 18.73,-8.29 8.25,-25.78 0.02,-36.49"
   id="path7"
   style="stroke:#0c4a6e;stroke-opacity:1;stroke-dasharray:none;stroke-width:2.11582902" /><circle
   class="fil0 str1"
   transform="rotate(53.300571)"
   r="15.76923"
   id="circle9"
   cx="131.82594"
   cy="-5.6333971"
   style="stroke:#0c4a6e;stroke-opacity:1;stroke-dasharray:none;stroke-width:2.11582902" /><polyline
   class="fil0 str2"
   points="113.67,86.1 184.34,33.38 188.43,33.18 212.78,16.12 206.88,10.25 202.94,2.92 179.63,21.38 178.27,25.24 107.55,77.9 "
   id="polyline11"
   style="stroke:#0c4a6e;stroke-opacity:1;stroke-dasharray:none;stroke-width:2.11582902" /><polyline
   class="fil0 str3"
   points="198.34,6.33 196.71,3.75 198.12,1.91 196.84,0.71 194.82,1.23 193.61,2.97 195.12,4.66 196.71,3.75 "
   id="polyline13"
   style="stroke:#0c4a6e;stroke-opacity:1;stroke-dasharray:none;stroke-width:2.11582902" /><polyline
   class="fil0 str4"
   points="190.14,12.67 188.51,10.1 189.92,8.26 188.64,7.05 186.62,7.57 185.41,9.32 186.92,11.01 188.51,10.1 "
   id="polyline15"
   style="stroke:#0c4a6e;stroke-opacity:1;stroke-dasharray:none;stroke-width:2.11582902" /><polyline
   class="fil0 str5"
   points="181.94,19.02 180.31,16.45 181.72,14.6 180.44,13.4 178.43,13.92 177.22,15.67 178.72,17.36 180.31,16.45 "
   id="polyline17"
   style="stroke:#0c4a6e;stroke-opacity:1;stroke-dasharray:none;stroke-width:2.11582902" /><polyline
   class="fil0 str6"
   points="209.48,19.01 211.43,21.35 213.62,20.57 214.38,22.15 213.27,23.92 211.23,24.54 210.08,22.59 211.43,21.35 "
   id="polyline19"
   style="stroke:#0c4a6e;stroke-opacity:1;stroke-dasharray:none;stroke-width:2.11582902" /><polyline
   class="fil0 str7"
   points="200.94,24.89 202.89,27.23 205.08,26.45 205.84,28.03 204.73,29.8 202.69,30.42 201.54,28.47 202.89,27.23 "
   id="polyline21"
   style="stroke:#0c4a6e;stroke-opacity:1;stroke-dasharray:none;stroke-width:2.11582902" /><polyline
   class="fil0 str8"
   points="192.4,30.78 194.35,33.11 196.54,32.33 197.3,33.91 196.19,35.68 194.15,36.3 193,34.35 194.35,33.11 "
   id="polyline23"
   style="stroke:#0c4a6e;stroke-opacity:1;stroke-dasharray:none;stroke-width:2.11582902" />
 </g>
</svg>
