<?xml version="1.0" encoding="UTF-8" standalone="no"?>
<!-- Creator: CorelDRAW 2020 (64-Bit) -->

<svg
   xml:space="preserve"
   width="500"
   height="500"
   version="1.1"
   style="clip-rule:evenodd;fill-rule:evenodd;image-rendering:optimizeQuality;shape-rendering:geometricPrecision;text-rendering:geometricPrecision"
   viewBox="0 0 334.55629 334.54724"
   id="svg19"
   sodipodi:docname="bass-guitar.svg"
   inkscape:version="1.2 (dc2aeda, 2022-05-15)"
   inkscape:export-filename="bass-guitar.png"
   inkscape:export-xdpi="96"
   inkscape:export-ydpi="96"
   xmlns:inkscape="http://www.inkscape.org/namespaces/inkscape"
   xmlns:sodipodi="http://sodipodi.sourceforge.net/DTD/sodipodi-0.dtd"
   xmlns="http://www.w3.org/2000/svg"
   xmlns:svg="http://www.w3.org/2000/svg"><sodipodi:namedview
   id="namedview21"
   pagecolor="#ffffff"
   bordercolor="#000000"
   borderopacity="0.25"
   inkscape:showpageshadow="2"
   inkscape:pageopacity="0.0"
   inkscape:pagecheckerboard="0"
   inkscape:deskcolor="#d1d1d1"
   inkscape:document-units="in"
   showgrid="false"
   inkscape:zoom="1.4809238"
   inkscape:cx="127.96067"
   inkscape:cy="316.3566"
   inkscape:window-width="2240"
   inkscape:window-height="1207"
   inkscape:window-x="0"
   inkscape:window-y="25"
   inkscape:window-maximized="1"
   inkscape:current-layer="Layer_x0020_1" />
 <defs
   id="defs4">
  <style
   type="text/css"
   id="style2">
   <![CDATA[
    .str0 {stroke:#1C73E8;stroke-width:0.89;stroke-linecap:round;stroke-linejoin:round;stroke-miterlimit:2.61313}
    .str3 {stroke:#1C73E8;stroke-width:0.89;stroke-linecap:round;stroke-linejoin:round;stroke-miterlimit:2.61313}
    .str2 {stroke:#1C73E8;stroke-width:0.89;stroke-linecap:round;stroke-linejoin:round;stroke-miterlimit:2.61313}
    .str1 {stroke:#1C73E8;stroke-width:0.89;stroke-linecap:round;stroke-linejoin:round;stroke-miterlimit:2.61313}
    .str4 {stroke:#1C73E8;stroke-width:0.89;stroke-linecap:round;stroke-linejoin:round;stroke-miterlimit:2.61313}
    .fil0 {fill:none}
   ]]>
  </style>
 </defs>
 <g
   id="Layer_x0020_1"
   inkscape:label="Layer 1"
   inkscape:groupmode="layer">
  <metadata
   id="CorelCorpID_0Corel-Layer" />
  <g
   id="g658"
   transform="matrix(1.0123021,0.02221569,-0.02274892,1.0055405,3.2199515,-2.6768915)"><g
     id="_1949458295696"
     transform="matrix(2.6019777,0,0,2.6019777,4.4263138,25.408606)">
   
   
   
   
   <g
   id="g553"
   transform="rotate(-12.823373,70.708276,56.262666)"><path
     class="fil0 str0"
     d="m 127.07682,6.6269331 c 6.30988,-2.6832273 8.47141,9.4144029 1.13456,8.1950649 -2.99571,-0.878653 -4.08259,0.547718 -5.78591,2.65848 -1.89476,2.496197 -4.00518,4.689093 -6.54697,6.265956 -2.15456,-1.354008 -4.50514,-1.586882 -7.29741,0.261826 -19.494577,13.337465 -40.90668,28.689917 -60.391548,42.027449 -4.173971,2.754294 0.483009,8.020865 4.313453,6.113164 7.884184,-5.200459 7.963423,1.987613 3.150994,6.444858 -3.944399,3.661366 -5.568119,4.659637 -13.447584,6.360686 -5.361134,0.935218 -9.242517,3.889577 -10.886462,10.339671 C 26.622084,109.22231 13.612806,111.62433 2.9051362,91.922819 -5.855774,75.790542 -7.7126548,60.054045 15.6313,57.269291 c 9.769835,-0.650669 13.865521,-2.103815 17.91526,-8.754558 4.508068,-6.345799 11.650216,-10.777824 17.754257,-8.180268 1.461229,0.755066 1.079164,3.035133 0.261313,4.067162 -0.885207,1.116465 -2.332557,2.351743 -4.187334,3.621991 -3.884081,2.567609 -2.338539,8.454505 1.12824,7.289505 L 104.85284,19.691228 c 1.18862,-0.755975 0.87783,-2.17295 0.30399,-3.733195 -0.45415,-1.097243 -0.004,-1.952548 1.54525,-2.507998 6.80094,-1.859275 13.78172,-4.3776048 20.38458,-6.8041705 z"
     id="path7"
     style="stroke:#0c4a6e;stroke-width:1.28051;stroke-dasharray:none;stroke-opacity:1" /><path
     class="fil0 str1"
     d="m 108.10661,13.035091 1.31738,-0.387237 c -0.68599,-0.938462 -0.92481,-1.779568 -0.49274,-2.455778 1.04071,-1.087114 0.86583,-2.5031679 -0.9489,-2.4494371 -0.73989,-0.316285 -1.44757,-0.1890258 -1.90804,0.5907489 -1.73685,1.4785609 -0.48838,2.3453732 1.36721,2.5843262 0.61358,0.296564 0.98043,1.402648 0.66509,2.117377 z"
     id="path9"
     style="stroke:#0c4a6e;stroke-width:1.28051;stroke-dasharray:none;stroke-opacity:1" /><path
     class="fil0 str2"
     d="m 113.79179,11.243715 1.31738,-0.387236 c -0.686,-0.9384629 -0.92482,-1.7795701 -0.49274,-2.4557799 1.04072,-1.0871138 0.86583,-2.5031679 -0.9489,-2.4494369 -0.73989,-0.3162841 -1.44757,-0.189025 -1.90804,0.5907489 -1.73685,1.4785607 -0.48838,2.3453737 1.3672,2.5843266 0.61358,0.2965633 0.98043,1.4026473 0.6651,2.1173773 z"
     id="path11"
     style="stroke:#0c4a6e;stroke-width:1.28051;stroke-dasharray:none;stroke-opacity:1" /><path
     class="fil0 str3"
     d="m 119.41828,9.3859139 1.29743,-0.4628312 c -0.686,-0.9384619 -0.92481,-1.7795693 -0.49274,-2.455779 1.04072,-1.087114 0.86584,-2.5031681 -0.94889,-2.4494373 -0.7399,-0.3162849 -1.44757,-0.1890248 -1.90805,0.5907491 -1.73684,1.4785606 -0.48838,2.3453739 1.36721,2.5843257 0.61357,0.2965644 1.00037,1.4782424 0.68504,2.1929727 z"
     id="path13"
     style="stroke:#0c4a6e;stroke-width:1.28051;stroke-dasharray:none;stroke-opacity:1" /><path
     class="fil0 str4"
     d="m 125.52701,7.0880554 1.31737,-0.3872372 c -0.68599,-0.938462 -0.92481,-1.7795695 -0.49273,-2.4557793 1.04071,-1.0871139 0.86583,-2.5031679 -0.9489,-2.4494368 -0.73989,-0.3162846 -1.44758,-0.1890253 -1.90805,0.590749 -1.73684,1.4785603 -0.48838,2.3453735 1.36721,2.5843264 0.61358,0.2965633 0.98043,1.4026476 0.6651,2.1173779 z"
     id="path15"
     style="stroke:#0c4a6e;stroke-width:1.28051;stroke-dasharray:none;stroke-opacity:1" /></g>
  </g></g>
 </g>
</svg>
