<?xml version="1.0" encoding="UTF-8" standalone="no"?>
<!-- Creator: CorelDRAW 2020 (64-Bit) -->

<svg
   xml:space="preserve"
   width="500"
   height="500"
   version="1.1"
   style="clip-rule:evenodd;fill-rule:evenodd;image-rendering:optimizeQuality;shape-rendering:geometricPrecision;text-rendering:geometricPrecision"
   viewBox="0 0 431.91192 431.89224"
   id="svg35"
   sodipodi:docname="electric-guitar.svg"
   inkscape:version="1.2 (dc2aeda, 2022-05-15)"
   inkscape:export-filename="electric-guitar.png"
   inkscape:export-xdpi="96"
   inkscape:export-ydpi="96"
   xmlns:inkscape="http://www.inkscape.org/namespaces/inkscape"
   xmlns:sodipodi="http://sodipodi.sourceforge.net/DTD/sodipodi-0.dtd"
   xmlns="http://www.w3.org/2000/svg"
   xmlns:svg="http://www.w3.org/2000/svg"><sodipodi:namedview
   id="namedview37"
   pagecolor="#ffffff"
   bordercolor="#000000"
   borderopacity="0.25"
   inkscape:showpageshadow="2"
   inkscape:pageopacity="0.0"
   inkscape:pagecheckerboard="0"
   inkscape:deskcolor="#d1d1d1"
   inkscape:document-units="px"
   showgrid="false"
   inkscape:zoom="1.574"
   inkscape:cx="188.37357"
   inkscape:cy="288.11944"
   inkscape:window-width="1390"
   inkscape:window-height="1205"
   inkscape:window-x="616"
   inkscape:window-y="25"
   inkscape:window-maximized="0"
   inkscape:current-layer="Layer_x0020_1" />
 <defs
   id="defs4">
  <style
   type="text/css"
   id="style2">
   <![CDATA[
    .str0 {stroke:#1C73E8;stroke-width:1.15;stroke-linecap:round;stroke-linejoin:round;stroke-miterlimit:2.61313}
    .str4 {stroke:#1C73E8;stroke-width:1.15;stroke-linecap:round;stroke-linejoin:round;stroke-miterlimit:2.61313}
    .str2 {stroke:#1C73E8;stroke-width:1.15;stroke-linecap:round;stroke-linejoin:round;stroke-miterlimit:2.61313}
    .str10 {stroke:#1C73E8;stroke-width:1.15;stroke-linecap:round;stroke-linejoin:round;stroke-miterlimit:2.61313}
    .str6 {stroke:#1C73E8;stroke-width:1.15;stroke-linecap:round;stroke-linejoin:round;stroke-miterlimit:2.61313}
    .str8 {stroke:#1C73E8;stroke-width:1.15;stroke-linecap:round;stroke-linejoin:round;stroke-miterlimit:2.61313}
    .str12 {stroke:#1C73E8;stroke-width:1.15;stroke-linecap:round;stroke-linejoin:round;stroke-miterlimit:2.61313}
    .str1 {stroke:#1C73E8;stroke-width:1.15;stroke-linecap:round;stroke-linejoin:round;stroke-miterlimit:2.61313}
    .str11 {stroke:#1C73E8;stroke-width:1.15;stroke-linecap:round;stroke-linejoin:round;stroke-miterlimit:2.61313}
    .str9 {stroke:#1C73E8;stroke-width:1.15;stroke-linecap:round;stroke-linejoin:round;stroke-miterlimit:2.61313}
    .str5 {stroke:#1C73E8;stroke-width:1.15;stroke-linecap:round;stroke-linejoin:round;stroke-miterlimit:2.61313}
    .str7 {stroke:#1C73E8;stroke-width:1.15;stroke-linecap:round;stroke-linejoin:round;stroke-miterlimit:2.61313}
    .str3 {stroke:#1C73E8;stroke-width:1.15;stroke-linecap:round;stroke-linejoin:round;stroke-miterlimit:2.61313}
    .fil0 {fill:none}
   ]]>
  </style>
 </defs>
 <g
   id="Layer_x0020_1"
   inkscape:label="Layer 1"
   inkscape:groupmode="layer">
  <metadata
   id="CorelCorpID_0Corel-Layer" />
  <g
   id="_1949221271312"
   transform="matrix(2.3998622,-0.37582921,0.37582921,2.3998622,-26.74356,86.983014)">
   <path
   class="fil0 str0"
   d="m 180.33,5.56 -31.03,9.11 c 1.21,4.31 -2.31,5.36 -6.64,8.03 -22.12,14.29 -44.23,28.58 -66.35,42.87 -4.56,2.45 -7.49,-5.77 -4.26,-10.62 1.43,-2.39 4.8,-4.61 6.82,-6.06 2.73,-2.03 -0.66,-6.79 -5.2,-6.7 C 62.32,43.49 55.04,52.88 48.1,62.67 41.76,70.63 31.6,70.5 22.86,71.96 6.93,74.62 -2.68,84.47 1.59,98.71 c 4.16,12.31 10.59,23.96 19.62,32.06 15.37,13.5 29.25,4.12 38.27,-10.8 4.33,-8.86 8.38,-13.56 19.38,-15.14 19.71,-5.4 18.79,-20.38 5.48,-14.07 -5.63,2.53 -12.7,-7.34 -6.51,-11.56 l 74.31,-51.38 c 3.86,-2.84 5.8,-3.39 8.46,-2.3 2.56,1.05 2.57,1.95 4.82,-0.36 l 9.94,-10.19 c 4.75,2.69 7.43,2.12 9.87,-1.71 2.1,-3.55 -1.45,-8.61 -4.9,-7.69 z"
   id="path7"
   style="stroke:#0c4a6e;stroke-width:1.72765;stroke-dasharray:none;stroke-opacity:1" />
   <path
   class="fil0 str1"
   d="m 151.17,10.93 2.65,-0.74 c 0.19,-0.05 0.31,-0.26 0.25,-0.45 l -0.3,-1.07 c -0.14,-0.5 -0.67,-0.8 -1.17,-0.66 l -1.53,0.43 c -0.5,0.14 -0.8,0.67 -0.66,1.17 l 0.3,1.07 c 0.05,0.19 0.26,0.31 0.45,0.25 z"
   id="path9"
   style="stroke:#0c4a6e;stroke-width:1.72765;stroke-dasharray:none;stroke-opacity:1" />
   <line
   class="fil0 str2"
   x1="153.50999"
   y1="13.43"
   x2="152.53999"
   y2="10.55"
   id="line11"
   style="stroke:#0c4a6e;stroke-width:1.72765;stroke-dasharray:none;stroke-opacity:1" />
   <path
   class="fil0 str3"
   d="m 156.56,9.35 2.65,-0.74 c 0.19,-0.05 0.31,-0.26 0.25,-0.45 l -0.3,-1.07 c -0.14,-0.5 -0.67,-0.8 -1.17,-0.66 l -1.53,0.43 c -0.5,0.14 -0.8,0.67 -0.66,1.17 l 0.3,1.07 c 0.05,0.19 0.26,0.31 0.45,0.25 z"
   id="path13"
   style="stroke:#0c4a6e;stroke-width:1.72765;stroke-dasharray:none;stroke-opacity:1" />
   <line
   class="fil0 str4"
   x1="158.89"
   y1="11.85"
   x2="157.92"
   y2="8.9700003"
   id="line15"
   style="stroke:#0c4a6e;stroke-width:1.72765;stroke-dasharray:none;stroke-opacity:1" />
   <path
   class="fil0 str5"
   d="m 161.41,7.93 2.65,-0.74 c 0.19,-0.05 0.31,-0.26 0.25,-0.45 l -0.3,-1.07 c -0.14,-0.5 -0.67,-0.8 -1.17,-0.66 l -1.53,0.43 c -0.5,0.14 -0.8,0.67 -0.66,1.17 l 0.3,1.07 c 0.05,0.19 0.26,0.31 0.45,0.25 z"
   id="path17"
   style="stroke:#0c4a6e;stroke-width:1.72765;stroke-dasharray:none;stroke-opacity:1" />
   <line
   class="fil0 str6"
   x1="163.75"
   y1="10.42"
   x2="162.78"
   y2="7.54"
   id="line19"
   style="stroke:#0c4a6e;stroke-width:1.72765;stroke-dasharray:none;stroke-opacity:1" />
   <path
   class="fil0 str7"
   d="m 166.5,6.43 2.65,-0.74 c 0.19,-0.05 0.31,-0.26 0.25,-0.45 l -0.3,-1.07 c -0.14,-0.5 -0.67,-0.8 -1.17,-0.66 l -1.53,0.43 c -0.5,0.14 -0.8,0.67 -0.66,1.17 l 0.3,1.07 c 0.05,0.19 0.26,0.31 0.45,0.25 z"
   id="path21"
   style="stroke:#0c4a6e;stroke-width:1.72765;stroke-dasharray:none;stroke-opacity:1" />
   <line
   class="fil0 str8"
   x1="168.84"
   y1="8.9300003"
   x2="167.87"
   y2="6.0500002"
   id="line23"
   style="stroke:#0c4a6e;stroke-width:1.72765;stroke-dasharray:none;stroke-opacity:1" />
   <path
   class="fil0 str9"
   d="m 171.5,4.96 2.65,-0.74 c 0.19,-0.05 0.31,-0.26 0.25,-0.45 L 174.1,2.7 c -0.14,-0.5 -0.67,-0.8 -1.17,-0.66 l -1.53,0.43 c -0.5,0.14 -0.8,0.67 -0.66,1.17 l 0.3,1.07 c 0.05,0.19 0.26,0.31 0.45,0.25 z"
   id="path25"
   style="stroke:#0c4a6e;stroke-width:1.72765;stroke-dasharray:none;stroke-opacity:1" />
   <line
   class="fil0 str10"
   x1="173.84"
   y1="7.46"
   x2="172.87"
   y2="4.5799999"
   id="line27"
   style="stroke:#0c4a6e;stroke-width:1.72765;stroke-dasharray:none;stroke-opacity:1" />
   <path
   class="fil0 str11"
   d="m 176.38,3.53 2.65,-0.74 c 0.19,-0.05 0.31,-0.26 0.25,-0.45 l -0.3,-1.07 c -0.14,-0.5 -0.67,-0.8 -1.17,-0.66 l -1.53,0.43 c -0.5,0.14 -0.8,0.67 -0.66,1.17 l 0.3,1.07 c 0.05,0.19 0.26,0.31 0.45,0.25 z"
   id="path29"
   style="stroke:#0c4a6e;stroke-width:1.72765;stroke-dasharray:none;stroke-opacity:1" />
   <line
   class="fil0 str12"
   x1="178.72"
   y1="6.0300002"
   x2="177.74001"
   y2="3.1500001"
   id="line31"
   style="stroke:#0c4a6e;stroke-width:1.72765;stroke-dasharray:none;stroke-opacity:1" />
  </g>
 </g>
</svg>
