<?xml version="1.0" encoding="UTF-8" standalone="no"?>
<!-- Creator: CorelDRAW 2020 (64-Bit) -->

<svg
   xml:space="preserve"
   width="500"
   height="500"
   version="1.1"
   style="clip-rule:evenodd;fill-rule:evenodd;image-rendering:optimizeQuality;shape-rendering:geometricPrecision;text-rendering:geometricPrecision"
   viewBox="0 0 177.63889 177.63684"
   id="svg27"
   sodipodi:docname="piano.svg"
   inkscape:version="1.2 (dc2aeda, 2022-05-15)"
   inkscape:export-filename="piano.png"
   inkscape:export-xdpi="96"
   inkscape:export-ydpi="96"
   xmlns:inkscape="http://www.inkscape.org/namespaces/inkscape"
   xmlns:sodipodi="http://sodipodi.sourceforge.net/DTD/sodipodi-0.dtd"
   xmlns="http://www.w3.org/2000/svg"
   xmlns:svg="http://www.w3.org/2000/svg"><sodipodi:namedview
   id="namedview29"
   pagecolor="#ffffff"
   bordercolor="#000000"
   borderopacity="0.25"
   inkscape:showpageshadow="2"
   inkscape:pageopacity="0.0"
   inkscape:pagecheckerboard="0"
   inkscape:deskcolor="#d1d1d1"
   inkscape:document-units="in"
   showgrid="false"
   inkscape:zoom="1.8080579"
   inkscape:cx="244.73774"
   inkscape:cy="245.8439"
   inkscape:window-width="1390"
   inkscape:window-height="1205"
   inkscape:window-x="0"
   inkscape:window-y="25"
   inkscape:window-maximized="0"
   inkscape:current-layer="Layer_x0020_1" />
 <defs
   id="defs4">
  <style
   type="text/css"
   id="style2">
   <![CDATA[
    .str0 {stroke:#1C73E8;stroke-width:0.47;stroke-linecap:round;stroke-linejoin:round;stroke-miterlimit:2.61313}
    .fil1 {fill:none}
    .fil0 {fill:#1C73E8;fill-rule:nonzero}
   ]]>
  </style>
 
   
   
   
   
   
  </defs>
 <g
   id="Layer_x0020_1"
   inkscape:label="Layer 1"
   inkscape:groupmode="layer">
  <metadata
   id="CorelCorpID_0Corel-Layer" />
  <g
   id="g1087"
   transform="matrix(2.5792273,0,0,2.5792273,22.829854,23.757926)"><g
     id="g9"
     style="stroke:#0c4a6e;stroke-width:0.710556;stroke-dasharray:none;stroke-opacity:1;image-rendering:auto">
    <path
   id="path7"
   style="stroke:#0c4a6e;stroke-width:0.41323746;stroke-dasharray:none;stroke-opacity:1"
   class="fil0"
   inkscape:label="path7"
   d="M 44.750179,-0.02034424 V -1.854241e-4 H 6.3997033 L 6.370305,0.03005281 6.0402044,0.04013222 5.7201831,0.06029104 5.4001618,0.09976873 5.0902199,0.16024519 4.7802781,0.22996111 4.4804156,0.31983585 4.1797132,0.41979 3.8899302,0.52982356 3.6102265,0.66001594 3.329683,0.80028774 3.0600587,0.94979899 2.799674,1.120309 2.5502086,1.3000585 2.3099826,1.4898874 2.0798361,1.6897957 1.859769,1.8997834 1.6497813,2.1198505 1.449873,2.3499971 1.2600441,2.590223 1.0802946,2.8396884 0.90978456,3.1000732 0.76027331,3.3696974 0.62000152,3.650241 0.48980914,3.9299446 0.37977558,4.2197276 0.27982143,4.5195901 0.18994669,4.8202925 0.12023077,5.1302344 0.0597543,5.4401762 0.02027661,5.7601975 1.1779392e-4,6.0802188 -0.00996162,6.4103195 H 0.0101972 V 44.060276 l 0.02939828,0.0294 0.01007941,0.3301 0.02015882,0.320022 0.04031765,0.320021 0.0596365,0.309942 0.0705559,0.309942 0.0898747,0.300702 0.0999542,0.299862 0.11003356,0.289784 0.13019238,0.279703 0.13943184,0.280544 0.15035121,0.269624 0.16967005,0.260385 0.1797495,0.249465 0.1906688,0.240226 0.1999083,0.230147 0.2099877,0.220067 0.2200671,0.209987 0.2301466,0.199909 0.239386,0.189829 0.2503053,0.179749 0.2595448,0.17051 0.2704642,0.149511 0.2797036,0.140272 0.2805436,0.130193 0.2897831,0.110033 0.2998624,0.09995 0.2998625,0.08987 0.3099418,0.06972 0.3099419,0.06048 0.3200213,0.03948 0.3200213,0.02016 0.3301006,0.01008 v -0.02016 H 44.770338 l 0.0294,-0.0294 0.330101,-0.01008 0.320021,-0.02016 0.320022,-0.04032 0.309941,-0.05964 0.309942,-0.07056 0.299863,-0.08987 0.300702,-0.09995 0.289783,-0.110034 0.279704,-0.130192 0.280543,-0.139432 0.269625,-0.150351 0.260384,-0.16967 0.249466,-0.179749 0.240226,-0.190669 0.230146,-0.199909 0.220067,-0.209987 0.209988,-0.220067 0.199908,-0.230147 0.189829,-0.239386 0.17975,-0.250305 0.17051,-0.259545 0.149511,-0.270464 0.140272,-0.279704 0.130192,-0.280544 0.110034,-0.289783 0.09995,-0.299862 0.08987,-0.299862 0.06972,-0.309942 0.06048,-0.309942 0.03948,-0.320021 0.02016,-0.320022 0.01008,-0.3301 h -0.02016 V 6.3901606 L 51.129606,6.3599224 51.120366,6.0298217 51.100208,5.7098005 51.05989,5.3897792 51.000254,5.0798373 50.929698,4.7698955 50.839823,4.470033 50.739869,4.1701705 50.629835,3.8803875 50.499643,3.5998439 50.360211,3.3201403 50.20986,3.0496761 50.04019,2.7901313 49.8596,2.5398259 49.669771,2.2996 49.469863,2.0702934 49.259875,1.8502263 49.039808,1.6402386 48.809662,1.4403303 48.570276,1.2496614 48.31997,1.069912 48.059586,0.90024189 47.789961,0.74989069 47.510258,0.60961889 47.229714,0.48026646 46.939931,0.3702329 46.640069,0.27027875 46.340206,0.18040401 46.030264,0.10984814 45.720322,0.05021163 45.400301,0.00989399 45.08028,-0.01026483 Z m 0.02016,0.47121242 0.279704,0.009239 0.299862,0.0201588 0.299863,0.0394777 0.290623,0.0503971 0.289783,0.0697159 0.279703,0.0797953 0.270464,0.0907147 0.269625,0.11003356 0.260384,0.11927296 0.259545,0.1301924 0.250306,0.1402718 0.239386,0.1495113 0.230146,0.17051 0.220067,0.1797495 0.220067,0.1898288 0.209988,0.1999084 0.199908,0.2099877 0.189829,0.2200671 0.18059,0.2200671 0.16967,0.2301465 0.150351,0.240226 0.139432,0.2494654 0.130192,0.2603848 0.120113,0.2603847 0.110034,0.2696242 0.08987,0.2696243 0.0798,0.2805435 0.07056,0.2897831 0.04956,0.289783 0.04032,0.2998625 0.02016,0.3007024 0.01008,0.2998624 V 44.050197 h 0.01932 l -0.0092,0.289783 -0.02016,0.299862 -0.04032,0.299863 -0.04956,0.290623 -0.07055,0.289783 -0.0798,0.279704 -0.08987,0.270464 -0.110034,0.269624 -0.120113,0.260385 -0.130192,0.259545 -0.139432,0.250305 -0.150351,0.240226 -0.16967,0.229306 -0.18059,0.220068 -0.189829,0.220067 -0.199908,0.209987 -0.209988,0.199909 -0.220067,0.190669 -0.220067,0.179749 -0.230147,0.16967 -0.239386,0.150351 -0.250305,0.140272 -0.260385,0.129353 -0.259545,0.120112 -0.270464,0.110034 -0.269624,0.08987 -0.279704,0.07979 -0.290623,0.07056 -0.289783,0.04956 -0.299862,0.04032 -0.299862,0.02016 -0.299863,0.01008 H 6.3997033 v 0.01932 L 6.1199997,49.990329 5.8201372,49.970171 5.5202748,49.929853 5.2296518,49.880296 4.9398687,49.80974 4.6601651,49.729945 4.3897009,49.64007 4.1200767,49.530036 3.8596919,49.409923 3.6001471,49.279731 3.3498418,49.140299 3.1096158,48.989948 2.8803093,48.820278 2.6602421,48.639688 2.440175,48.44986 2.2301873,48.249951 2.030279,48.039963 1.8396102,47.819896 1.6598607,47.599829 1.4901906,47.369683 1.3398394,47.130297 1.2004076,46.879991 1.0702152,46.619607 0.95010221,46.360062 0.84006864,46.089598 0.7501939,45.819973 0.67039857,45.54027 0.5998427,45.249647 0.5502856,44.959864 0.50996796,44.660001 0.48980914,44.360139 0.47972973,44.060276 V 6.4002401 h -0.0193189 l 0.009239,-0.290623 0.0201588,-0.2998625 0.0403176,-0.2998624 0.0495571,-0.2897831 0.0705559,-0.289783 L 0.73003508,4.6497825 0.81990982,4.3801583 0.92994338,4.1096941 1.0500564,3.8501493 1.1802487,3.5897645 1.3196806,3.3402991 1.4700318,3.1000732 1.6397019,2.8699266 1.8202913,2.6498595 2.0101202,2.4297924 2.2100285,2.2198047 2.4200162,2.0198964 2.6400833,1.8300675 2.8601504,1.650318 3.090297,1.479808 3.329683,1.3302967 3.5799883,1.1900249 3.8403731,1.0598325 4.0999179,0.93971958 4.3703821,0.82968602 4.6400063,0.73981127 4.9197099,0.66001594 5.2103329,0.59030002 5.500116,0.53990297 5.7999784,0.49958533 6.0998409,0.48026646 6.3997033,0.47018705 H 44.770338 Z" />
   </g><path
     class="fil1 str0"
     d="m 8.76,0.24 h 8.29 v 26.11 c 0,0.75 -0.61,1.36 -1.36,1.36 h -5.57 c -0.75,0 -1.36,-0.61 -1.36,-1.36 z"
     id="path11"
     style="stroke:#0c4a6e;stroke-width:0.710556;stroke-dasharray:none;stroke-opacity:1;image-rendering:auto;fill:#0c4a6e;fill-opacity:1" /><line
     class="fil1 str0"
     x1="12.91"
     y1="27.709999"
     x2="12.91"
     y2="50.220001"
     id="line13"
     style="stroke:#0c4a6e;stroke-width:0.710556;stroke-dasharray:none;stroke-opacity:1;image-rendering:auto" /><g
     id="_2593563054224"
     style="stroke:#0c4a6e;stroke-width:0.710556;stroke-dasharray:none;stroke-opacity:1;image-rendering:auto;fill:#0c4a6e;fill-opacity:1">
    <path
   class="fil1 str0"
   d="m 21.44,0.24 h 8.29 v 26.11 c 0,0.75 -0.61,1.36 -1.36,1.36 H 22.8 c -0.75,0 -1.36,-0.61 -1.36,-1.36 z"
   id="path15"
   style="stroke:#0c4a6e;stroke-width:0.710556;stroke-dasharray:none;stroke-opacity:1;fill:#0c4a6e;fill-opacity:1" />
    <line
   class="fil1 str0"
   x1="25.58"
   y1="27.709999"
   x2="25.58"
   y2="50.220001"
   id="line17"
   style="stroke:#0c4a6e;stroke-width:0.710556;stroke-dasharray:none;stroke-opacity:1;fill:#0c4a6e;fill-opacity:1" />
   </g><g
     id="_2593563053600"
     style="stroke:#0c4a6e;stroke-width:0.710556;stroke-dasharray:none;stroke-opacity:1;image-rendering:auto">
    <path
   class="fil1 str0"
   d="m 33.87,0.24 h 8.29 v 26.11 c 0,0.75 -0.61,1.36 -1.36,1.36 h -5.57 c -0.75,0 -1.36,-0.61 -1.36,-1.36 z"
   id="path20"
   style="stroke:#0c4a6e;stroke-width:0.710556;stroke-dasharray:none;stroke-opacity:1;fill:#0c4a6e;fill-opacity:1" />
    <line
   class="fil1 str0"
   x1="38.02"
   y1="27.709999"
   x2="38.02"
   y2="50.220001"
   id="line22"
   style="stroke:#0c4a6e;stroke-width:0.710556;stroke-dasharray:none;stroke-opacity:1" />
   </g></g>
 </g>
</svg>
