<?xml version="1.0" encoding="UTF-8" standalone="no"?>
<!-- Created with Inkscape (http://www.inkscape.org/) -->

<svg
   width="400"
   height="400"
   viewBox="0 0 105.83333 105.83333"
   version="1.1"
   id="svg1384"
   inkscape:export-filename="blue-logo-only.png"
   inkscape:export-xdpi="96"
   inkscape:export-ydpi="96"
   inkscape:version="1.2 (dc2aeda, 2022-05-15)"
   sodipodi:docname="logo-only.svg"
   xmlns:inkscape="http://www.inkscape.org/namespaces/inkscape"
   xmlns:sodipodi="http://sodipodi.sourceforge.net/DTD/sodipodi-0.dtd"
   xmlns="http://www.w3.org/2000/svg"
   xmlns:svg="http://www.w3.org/2000/svg">
  <sodipodi:namedview
     id="namedview1386"
     pagecolor="#ffffff"
     bordercolor="#000000"
     borderopacity="0.25"
     inkscape:showpageshadow="2"
     inkscape:pageopacity="0.0"
     inkscape:pagecheckerboard="0"
     inkscape:deskcolor="#d1d1d1"
     inkscape:document-units="mm"
     showgrid="false"
     inkscape:zoom="0.914906"
     inkscape:cx="353.58824"
     inkscape:cy="443.21493"
     inkscape:window-width="2240"
     inkscape:window-height="1207"
     inkscape:window-x="0"
     inkscape:window-y="25"
     inkscape:window-maximized="1"
     inkscape:current-layer="layer1" />
  <defs
     id="defs1381">
    <clipPath
       clipPathUnits="userSpaceOnUse"
       id="clipPath13267">
      <path
         d="M -1653.3503,620.6247 H 266.64967 v -1080 H -1653.3503 Z"
         id="path13269"
         style="stroke-width:0.999998" />
    </clipPath>
    <clipPath
       clipPathUnits="userSpaceOnUse"
       id="clipPath13263">
      <path
         d="M -1606.2346,416.2863 H 313.76537 v -1080 H -1606.2346 Z"
         id="path13265"
         style="stroke-width:0.999998" />
    </clipPath>
    <clipPath
       clipPathUnits="userSpaceOnUse"
       id="clipPath13259">
      <path
         d="M -1562.9524,595.4118 H 357.04757 v -1080 H -1562.9524 Z"
         id="path13261"
         style="stroke-width:0.999998" />
    </clipPath>
    <clipPath
       clipPathUnits="userSpaceOnUse"
       id="clipPath13255">
      <path
         d="M -1663.0076,538.3703 H 256.99237 v -1080 H -1663.0076 Z"
         id="path13257"
         style="stroke-width:0.999998" />
    </clipPath>
  </defs>
  <g
     inkscape:label="Layer 1"
     inkscape:groupmode="layer"
     id="layer1">
    <g
       id="g13459"
       style="fill:#0c4a6e;fill-opacity:1"
       transform="matrix(0.35277777,0,0,-0.35277777,-528.85205,245.15717)">
      <g
         id="g202"
         transform="translate(1653.3503,459.3753)"
         clip-path="url(#clipPath13267)"
         style="fill:#0c4a6e;fill-opacity:1">
        <path
           d="M 0,0 C -3.183,0 -5.764,2.58 -5.764,5.763 V 37.3 c 0,16.443 13.378,29.832 29.822,29.846 l 21.904,0.032 c 36.448,0.047 66.102,29.739 66.102,66.19 0,36.496 -29.692,66.189 -66.189,66.189 h -92.981 v -44.454 c 0,-3.184 -2.581,-5.764 -5.764,-5.764 -3.183,0 -5.763,2.58 -5.763,5.764 v 50.217 c 0,3.183 2.58,5.763 5.763,5.763 h 98.745 c 42.853,0 77.716,-34.863 77.716,-77.715 0,-42.799 -34.819,-77.662 -77.617,-77.717 L 24.067,55.619 C 13.974,55.611 5.763,47.393 5.763,37.3 V 5.763 C 5.763,2.58 3.183,0 0,0"
           style="fill:#0c4a6e;fill-opacity:1;fill-rule:nonzero;stroke:none"
           id="path204" />
      </g>
      <g
         id="g206"
         transform="translate(1606.2346,663.7137)"
         clip-path="url(#clipPath13263)"
         style="fill:#0c4a6e;fill-opacity:1">
        <path
           d="m 0,0 v -211.94 c 0,-3.164 -2.564,-5.763 -5.762,-5.763 -3.165,0 -5.762,2.599 -5.762,5.763 V -5.729 c 0,3.164 2.597,5.729 5.762,5.729 z"
           style="fill:#0c4a6e;fill-opacity:1;fill-rule:nonzero;stroke:none"
           id="path208" />
      </g>
      <g
         id="g210"
         transform="translate(1562.9524,484.5882)"
         clip-path="url(#clipPath13259)"
         style="fill:#0c4a6e;fill-opacity:1">
        <path
           d="m 0,0 c -17.513,0 -31.76,-14.248 -31.76,-31.76 0,-17.513 14.247,-31.76 31.76,-31.76 17.513,0 31.761,14.247 31.761,31.76 C 31.761,-14.248 17.513,0 0,0 m 0,-75.047 c -23.868,0 -43.286,19.419 -43.286,43.287 0,23.868 19.418,43.287 43.286,43.287 23.869,0 43.287,-19.419 43.287,-43.287 0,-23.868 -19.418,-43.287 -43.287,-43.287"
           style="fill:#0c4a6e;fill-opacity:1;fill-rule:nonzero;stroke:none"
           id="path212" />
      </g>
      <g
         id="g214"
         transform="translate(1663.0076,541.6297)"
         clip-path="url(#clipPath13255)"
         style="fill:#0c4a6e;fill-opacity:1">
        <path
           d="m 0,0 c -2.639,0 -4.939,1.798 -5.578,4.358 l -10.459,41.971 h -19.391 c -3.175,0 -5.748,2.574 -5.748,5.749 0,3.174 2.573,5.749 5.748,5.749 h 23.883 c 2.639,0 4.939,-1.798 5.577,-4.359 l 5.91,-23.718 17.021,69.726 c 0.621,2.541 2.879,4.343 5.495,4.383 0.03,0 0.06,0.002 0.09,0.002 2.579,0 4.848,-1.721 5.538,-4.214 L 44.34,41.015 50.003,54.327 c 0.902,2.123 2.984,3.5 5.289,3.5 h 20.001 c 3.175,0 5.748,-2.575 5.748,-5.749 0,-3.175 -2.573,-5.749 -5.748,-5.749 H 59.094 L 48.483,21.385 c -0.956,-2.25 -3.227,-3.681 -5.667,-3.486 -2.438,0.161 -4.508,1.845 -5.161,4.2 L 22.9,75.321 5.584,4.385 C 4.957,1.816 2.658,0.007 0.014,0 Z"
           style="fill:#0c4a6e;fill-opacity:1;fill-rule:nonzero;stroke:none"
           id="path216" />
      </g>
    </g>
  </g>
</svg>
