<svg xmlns="http://www.w3.org/2000/svg" xml:space="preserve" width="203.31" height="169.068" style="shape-rendering:geometricPrecision;text-rendering:geometricPrecision;image-rendering:optimizeQuality;fill-rule:evenodd;clip-rule:evenodd" viewBox="0 0 215.08 178.86"><defs><style>.fil0{fill:none}</style></defs><g id="Layer_x0020_1"><g id="_1949218620768"><path class="fil0" d="M107.55 77.9c-7.9-10.94-21.66-25.95-34.95-10.37C58.04 84.6 58.36 79.65 41.24 83.27c-15.73 3.32-27 8.92-33.61 16.32-7.92 8.88-9.13 20.36-3.24 33.62 4.54 10.22 18.28 28.62 26.79 35.84 9.76 8.27 19.78 10.91 29.44 7.94 10.36-3.18 20.29-12.81 28.99-28.83 8.35-15.38 3.52-16.48 24.04-25.56 18.73-8.29 8.25-25.78.02-36.49" style="stroke:#1c73e8;stroke-width:1.41;stroke-linecap:round;stroke-linejoin:round;stroke-miterlimit:2.61313"/><circle class="fil0" transform="rotate(53.3 -60.301 134.153) scale(.24845)" r="63.47" style="stroke:#1c73e8;stroke-width:1.41;stroke-linecap:round;stroke-linejoin:round;stroke-miterlimit:2.61313"/><path class="fil0" style="stroke:#1c73e8;stroke-width:1.41;stroke-linecap:round;stroke-linejoin:round;stroke-miterlimit:2.61313" d="m113.67 86.1 70.67-52.72 4.09-.2 24.35-17.06-5.9-5.87-3.94-7.33-23.31 18.46-1.36 3.86-70.72 52.66M198.34 6.33l-1.63-2.58 1.41-1.84-1.28-1.2-2.02.52-1.21 1.74 1.51 1.69 1.59-.91M190.14 12.67l-1.63-2.57 1.41-1.84-1.28-1.21-2.02.52-1.21 1.75 1.51 1.69 1.59-.91M181.94 19.02l-1.63-2.57 1.41-1.85-1.28-1.2-2.01.52-1.21 1.75 1.5 1.69 1.59-.91M209.48 19.01l1.95 2.34 2.19-.78.76 1.58-1.11 1.77-2.04.62-1.15-1.95 1.35-1.24M200.94 24.89l1.95 2.34 2.19-.78.76 1.58-1.11 1.77-2.04.62-1.15-1.95 1.35-1.24M192.4 30.78l1.95 2.33 2.19-.78.76 1.58-1.11 1.77-2.04.62-1.15-1.95 1.35-1.24"/></g></g></svg>