<svg xmlns="http://www.w3.org/2000/svg" xml:space="preserve" width="211.355" height="168.153" style="shape-rendering:geometricPrecision;text-rendering:geometricPrecision;image-rendering:optimizeQuality;fill-rule:evenodd;clip-rule:evenodd" viewBox="0 0 141.42 112.51"><defs><style>.fil0{fill:none}</style></defs><g id="Layer_x0020_1"><g id="_1949458295696"><path class="fil0" d="M135.07 5.72c6.52-2.89 8.66 9.92 1.11 8.68-3.08-.91-4.21.61-5.98 2.86-1.97 2.66-4.16 5-6.79 6.69-2.21-1.42-4.63-1.65-7.52.33-20.18 14.28-42.35 30.71-62.52 44.99-4.32 2.95.44 8.5 4.4 6.45 8.16-5.57 8.19 2.05 3.2 6.81-4.09 3.91-5.77 4.98-13.9 6.84-5.53 1.03-9.55 4.19-11.29 11.04-4.94 14.8-18.36 17.44-29.25-3.37C-2.38 80-4.18 63.33 19.89 60.21c10.07-.76 14.3-2.33 18.52-9.41 4.69-6.76 12.08-11.51 18.35-8.8 1.5.79 1.09 3.21.24 4.31-.92 1.19-2.42 2.51-4.34 3.87-4.02 2.75-2.47 8.98 1.11 7.72l58.31-38.17c1.23-.81.92-2.31.34-3.96-.46-1.16.01-2.07 1.61-2.67 7.02-2.02 14.23-4.74 21.05-7.36z" style="stroke:#1c73e8;stroke-width:.89;stroke-linecap:round;stroke-linejoin:round;stroke-miterlimit:2.61313"/><path class="fil0" d="m115.48 12.65 1.36-.42c-.7-.99-.94-1.88-.49-2.6 1.08-1.16.91-2.66-.96-2.59-.76-.33-1.49-.19-1.97.64-1.8 1.58-.52 2.49 1.39 2.73.63.31 1 1.48.67 2.24zM121.35 10.71l1.36-.42c-.7-.99-.94-1.88-.49-2.6 1.08-1.16.91-2.66-.96-2.59-.76-.33-1.49-.19-1.97.64-1.8 1.58-.52 2.49 1.39 2.73.63.31 1 1.48.67 2.24zM127.16 8.7l1.34-.5c-.7-.99-.94-1.88-.49-2.6 1.08-1.16.91-2.66-.96-2.59-.76-.33-1.49-.19-1.97.64-1.8 1.58-.52 2.49 1.39 2.73.63.31 1.02 1.56.69 2.32zM133.47 6.22l1.36-.42c-.7-.99-.94-1.88-.49-2.6 1.08-1.16.91-2.66-.96-2.59-.76-.33-1.49-.19-1.97.64-1.8 1.58-.52 2.49 1.39 2.73.63.31 1 1.48.67 2.24z" style="stroke:#1c73e8;stroke-width:.89;stroke-linecap:round;stroke-linejoin:round;stroke-miterlimit:2.61313"/></g></g></svg>