<svg xmlns="http://www.w3.org/2000/svg" xml:space="preserve" width="94.323" height="181.424" style="shape-rendering:geometricPrecision;text-rendering:geometricPrecision;image-rendering:optimizeQuality;fill-rule:evenodd;clip-rule:evenodd" viewBox="0 0 67.01 128.89"><defs><style>.fil1{fill:none}.fil0{fill:#1c73e8;fill-rule:nonzero}</style></defs><g id="Layer_x0020_1"><g id="_1949457161296"><path class="fil0" d="M33.51.96V0v.96zm23.97 23.02h-.95l-.03-1.18-.09-1.16-.15-1.15-.2-1.13-.26-1.11-.31-1.09-.36-1.07-.41-1.04-.46-1.02-.51-.99-.56-.96-.6-.93-.64-.9-.69-.87-.73-.84-.76-.8-.8-.76-.84-.73-.87-.69-.9-.64-.93-.6-.96-.56-.99-.51-1.02-.46-1.04-.41-1.07-.36-1.09-.31-1.11-.26-1.13-.2-1.15-.15-1.17-.09-1.18-.03V.02l1.23.03 1.21.09 1.2.15 1.18.21 1.16.27 1.14.32 1.11.38 1.09.43 1.06.48 1.03.53 1 .58.97.62.94.67.91.71.87.75.83.79.79.83.76.87.71.91.67.94.63.97.58 1 .53 1.03.48 1.06.43 1.09.38 1.11.32 1.14.27 1.16.21 1.18.15 1.2.09 1.21.03 1.23zm-.95 37.31V23.98h.95v37.31h-.95zM33.51 85.26v-.96l1.18-.03 1.17-.09 1.15-.15 1.13-.2 1.11-.26 1.09-.31 1.07-.36 1.04-.41 1.02-.46.99-.51.96-.56.93-.6.9-.64.87-.69.84-.73.8-.76.76-.8.73-.84.68-.87.64-.9.6-.93.56-.96.51-.99.46-1.02.41-1.04.36-1.07.31-1.09.26-1.11.2-1.13.15-1.15.09-1.16.03-1.18h.95l-.03 1.23-.09 1.21-.15 1.2-.21 1.18-.27 1.16-.32 1.14-.38 1.11-.43 1.09-.48 1.06-.53 1.03-.58 1-.63.97-.67.94-.71.91-.75.87-.79.83-.83.79-.87.75-.91.71-.94.67-.97.62-1 .58-1.03.53-1.06.48-1.09.43-1.11.38-1.14.32-1.16.27-1.18.21-1.2.15-1.21.09-1.23.03zm0-.96v.96-.96zM9.54 61.28h.95l.03 1.18.09 1.16.15 1.15.2 1.13.26 1.11.31 1.09.36 1.07.41 1.04.46 1.02.51.99.56.96.6.93.64.9.68.87.73.84.76.8.8.76.84.73.87.69.9.64.93.6.96.56.99.51 1.02.46 1.04.41 1.07.36 1.09.31 1.11.26 1.13.2 1.15.15 1.17.09 1.18.03v.96l-1.23-.03-1.21-.09-1.2-.15-1.18-.21-1.16-.27-1.14-.32-1.11-.38-1.09-.43-1.06-.48-1.03-.53-1-.58-.97-.62-.94-.67-.91-.71-.87-.75-.83-.79-.79-.83-.75-.87-.71-.91-.67-.94-.63-.97-.58-1-.53-1.03-.48-1.06-.43-1.09-.38-1.11-.32-1.14-.27-1.16-.21-1.18-.15-1.2-.09-1.21-.03-1.23zm.95-37.31v37.31h-.95V23.97h.95zM33.51 0v.96l-1.18.03-1.17.09-1.15.15-1.13.2-1.11.26-1.09.31-1.07.36-1.04.41-1.02.46-.99.51-.96.56-.93.6-.9.64-.87.69-.84.73-.8.76-.76.8-.73.84-.69.87-.64.9-.6.93-.56.96-.51.99-.46 1.02-.41 1.04-.36 1.07-.31 1.09-.26 1.11-.2 1.13-.15 1.15-.09 1.16-.03 1.18h-.95l.03-1.23.09-1.21.15-1.2.21-1.18.27-1.16.32-1.14.38-1.11.43-1.09.48-1.06.53-1.03.58-1 .63-.97.67-.94.71-.91.76-.87.79-.83.83-.79.87-.75.91-.71.94-.67.97-.62 1-.58 1.03-.53 1.06-.48 1.09-.43 1.11-.38 1.14-.32L28.69.5l1.18-.21 1.2-.15 1.21-.09 1.23-.03z"/><path class="fil1" d="M66.54 50.1v13.14c0 18.17-14.86 33.03-33.03 33.03h0C15.34 96.27.48 81.41.48 63.24V50.31M33.51 96.27v32.05M56.38 128.42H10.63M15.47 45.92v10.72M26.81 45.92v10.72M40.43 45.92v10.72M51.54 45.92v10.72" style="stroke:#1c73e8;stroke-width:.95;stroke-linecap:round;stroke-linejoin:round;stroke-miterlimit:2.61313"/><path class="fil0" d="M10.07 22.7c-.26 0-.47-.21-.47-.48 0-.26.21-.48.47-.48v.95zm12.5 0h-12.5v-.95h12.5v.95zm0-.95c.26 0 .47.21.47.48 0 .26-.21.48-.47.48v-.95zM10.07 30.79c-.26 0-.47-.21-.47-.48 0-.26.21-.48.47-.48v.95zm12.5 0h-12.5v-.95h12.5v.95zm0-.95c.26 0 .47.21.47.48 0 .26-.21.48-.47.48v-.95zM10.07 38.88c-.26 0-.47-.21-.47-.48 0-.26.21-.48.47-.48v.95zm12.5 0h-12.5v-.95h12.5v.95zm0-.95c.26 0 .47.21.47.48 0 .26-.21.48-.47.48v-.95zM44.5 22.7c-.26 0-.47-.21-.47-.48 0-.26.21-.48.47-.48v.95zm12.5 0H44.5v-.95H57v.95zm0-.95c.26 0 .47.21.47.48 0 .26-.21.48-.47.48v-.95zM44.5 30.79c-.26 0-.47-.21-.47-.48 0-.26.21-.48.47-.48v.95zm12.5 0H44.5v-.95H57v.95zm0-.95c.26 0 .47.21.47.48 0 .26-.21.48-.47.48v-.95zM44.5 38.88c-.26 0-.47-.21-.47-.48 0-.26.21-.48.47-.48v.95zm12.5 0H44.5v-.95H57v.95zm0-.95c.26 0 .47.21.47.48 0 .26-.21.48-.47.48v-.95z"/></g></g></svg>